<mxfile host="app.diagrams.net" modified="2023-12-06T16:23:46.639Z" agent="Mozilla/5.0 (Windows NT 10.0; Win64; x64) AppleWebKit/537.36 (KHTML, like Gecko) Chrome/119.0.0.0 Safari/537.36 Edg/119.0.0.0" version="22.1.6" etag="j2Hb6adQNK8m2eP_wUsX" type="github">
  <diagram name="第 1 页" id="VBXrqZ1TGD6I4Q5Eti-B">
    <mxGraphModel>
      <root>
        <mxCell id="0" />
        <mxCell id="1" parent="0" />
      </root>
    </mxGraphModel>
  </diagram>
</mxfile>
